# xmcd
#
# Track frame offsets: 
#        150
#        17867
#        33055
#        51062
#        70242
#        87890
#        104117
#        119465
#        137150
#        153982
#        173367
#        191600
#        206755
#
# Disc length: 3004 seconds
#
# Revision: 12
# Processed by: cddbd v1.5.2PL0 Copyright (c) Steve Scherf et al.
# Submitted via: ExactAudioCopyFreeDBPlugin 1.0
#
DISCID=ae0bba0d
DTITLE=Akon - Trouble
DYEAR=2004
DGENRE=R&B
TTITLE0=Locked Up
TTITLE1=Trouble Nobody
TTITLE2=Bananza (Belly Dancer)
TTITLE3=Gangsta Feat. Daddy T, Picklehead and Devyne
TTITLE4=Ghetto
TTITLE5=Pot Of Gold
TTITLE6=Show Out
TTITLE7=Lonely
TTITLE8=When The Time's Right
TTITLE9=Journey
TTITLE10=Don't Let Up
TTITLE11=Easy Road
TTITLE12=Locked Up (Remix) Feat. Styles P
EXTD=Locked Up by Akon
EXTT0=
EXTT1=
EXTT2=
EXTT3=
EXTT4=
EXTT5=
EXTT6=
EXTT7=
EXTT8=
EXTT9=
EXTT10=
EXTT11=
EXTT12=
PLAYORDER=
